<svg xmlns="http://www.w3.org/2000/svg" xmlns:xlink="http://www.w3.org/1999/xlink" width="793" zoomAndPan="magnify" viewBox="0 0 595.5 842.249979" height="1122" preserveAspectRatio="xMidYMid meet" version="1.0"><defs><g/><clipPath id="179f8954d1"><path d="M 0.015625 237 L 594.984375 237 L 594.984375 563 L 0.015625 563 Z M 0.015625 237 " clip-rule="nonzero"/></clipPath></defs><g clip-path="url(#179f8954d1)"><path stroke-linecap="butt" transform="matrix(0.870171, 0.000000000000000013, -0.000000000000000013, 0.870171, 14.872797, 320.120136)" fill="none" stroke-linejoin="miter" d="M 66.665051 90.747419 C 67.208227 97.409182 66.633627 104.605142 64.941252 112.330812 C 63.877345 117.407937 62.584497 121.228126 61.067195 123.786889 C 59.114454 127.086347 56.22799 129.941389 52.407801 132.347524 C 48.219509 134.910776 44.614795 136.059975 41.602637 135.79961 C 35.915 135.974683 29.024295 134.551652 20.930523 131.535004 C 12.033209 127.086347 6.704696 119.046444 4.949474 107.415293 C 4.666664 106.611752 4.168378 104.246018 3.450129 100.318091 C 3.364837 98.823235 3.319946 97.270021 3.319946 95.662938 C 3.319946 84.031787 6.121119 73.150309 11.718975 63.014015 C 13.954526 59.086089 16.580625 55.485864 19.597272 52.208851 C 23.695783 47.845487 27.340898 45.663804 30.532619 45.663804 C 39.690298 45.578512 47.64491 48.420086 54.391965 54.193015 C 58.212154 57.492473 61.771977 64.827595 65.071435 76.19838 C 65.502385 77.715682 66.036583 82.568354 66.665051 90.747419 Z M 59.599273 97.516919 C 59.253615 88.188655 58.723906 82.056601 58.005657 79.129735 C 57.462481 76.91214 56.573647 74.474582 55.339156 71.803592 C 54.881272 70.371582 54.252804 68.23479 53.449263 65.393216 C 53.188897 64.782704 52.753458 63.99263 52.147436 63.014015 L 52.407801 62.722226 C 50.630134 60.769486 47.784071 58.197255 43.87859 55.005535 C 40.579132 52.967502 37.239272 51.948486 33.854522 51.948486 C 28.534988 51.948486 23.956148 55.149185 20.118003 61.550582 C 14.084708 71.57465 11.068061 82.860143 11.068061 95.402572 C 11.068061 98.41922 11.243134 101.305684 11.588792 104.061966 C 12.131968 104.865508 12.486604 105.799232 12.661677 106.863139 C 15.332667 119.576153 21.689174 126.870873 31.735686 128.733832 C 36.53449 129.627155 39.506247 129.941389 40.655446 129.681023 C 51.159843 129.483505 57.300875 120.096883 59.078542 101.521159 C 59.428688 97.790752 59.599273 96.457501 59.599273 97.516919 Z M 124.542482 103.541236 C 123.020691 110.027925 114.756335 116.335052 99.735945 122.453639 C 97.240028 123.427765 93.554511 124.505139 88.670416 125.676783 C 83.418217 126.911274 79.68781 127.934779 77.470215 128.733832 C 74.085464 129.972812 72.132724 130.502521 71.611993 130.331937 C 69.919618 129.811206 68.846733 128.962774 68.388849 127.79113 C 68.043192 126.466857 68.572901 125.362549 69.986954 124.473715 C 70.700714 124.015831 72.43798 123.571415 75.194262 123.135976 C 75.194262 122.965392 75.126926 122.682581 74.996743 122.292033 C 74.866561 121.87904 74.803714 121.54236 74.803714 121.281995 L 75.194262 117.928668 C 74.933897 114.458626 74.359297 106.414233 73.470463 93.808957 C 73.380682 92.462239 73.2505 90.280557 73.079915 87.263909 C 72.967689 87.093325 72.783638 86.873361 72.523272 86.612996 C 72.891375 84.377445 73.079915 81.971309 73.079915 79.390101 C 73.079915 75.134473 72.63101 70.425451 71.742176 65.263034 L 72.002541 64.998179 C 71.199 64.912887 70.399947 64.867996 69.596406 64.867996 C 68.967938 64.867996 68.05217 64.935332 66.862569 65.065515 C 65.66848 65.195698 64.757201 65.263034 64.124244 65.263034 C 62.171503 65.263034 60.308544 64.46847 58.526388 62.883833 C 58.441096 61.887262 58.441096 61.299195 58.526388 61.128611 C 59.329929 59.346454 61.870736 58.596782 66.14432 58.879592 C 66.840124 58.879592 68.388849 58.655139 70.799474 58.197255 L 72.783638 57.806707 C 85.50114 57.178239 92.836262 56.949297 94.789002 57.12437 C 101.105108 57.667547 104.979165 58.111963 106.411175 58.457621 C 111.555636 59.714557 115.187284 61.89624 117.315098 64.998179 C 118.118639 66.151867 118.217399 67.884644 117.606887 70.209976 C 116.718053 73.572281 113.863012 76.588928 109.046252 79.259918 C 106.918438 80.431562 103.102739 81.993755 97.590175 83.946495 C 110.132604 86.505258 118.886268 91.304062 123.860145 98.333928 C 124.398832 99.137469 124.627774 100.870246 124.542482 103.541236 Z M 93.325569 62.722226 L 86.129608 62.722226 C 84.091576 62.722226 81.865003 62.99157 79.458868 63.534746 C 80.262409 69.132602 80.661935 72.782207 80.661935 74.474582 L 80.661935 82.478573 C 85.285665 81.764813 91.642172 80.027547 99.735945 77.271265 C 103.90628 75.839255 106.518912 74.375822 107.582819 72.876477 C 109.014829 70.815999 109.728589 69.298697 109.728589 68.320082 C 109.728589 66.28205 107.421213 64.728836 102.797483 63.664929 C 99.695543 63.036461 96.535246 62.722226 93.325569 62.722226 Z M 116.143454 104.744303 C 116.839258 103.312294 116.839258 102.109226 116.143454 101.130611 C 109.91713 93.234357 100.485618 89.283986 87.857896 89.283986 C 85.815374 89.283986 83.59329 89.369278 81.182666 89.544351 C 81.64055 98.787323 82.313909 108.250258 83.202742 117.928668 C 83.027669 118.557136 82.942377 118.916261 82.942377 119.001553 C 83.288034 119.63451 83.59329 120.339292 83.853656 121.120389 C 89.36622 120.509877 95.363602 118.741188 101.85478 115.814321 C 109.320085 112.429571 114.082976 108.739565 116.143454 104.744303 Z M 197.058733 90.747419 C 197.601909 97.409182 197.02731 104.605142 195.334935 112.330812 C 194.271028 117.407937 192.978179 121.228126 191.460877 123.786889 C 189.508137 127.086347 186.621672 129.941389 182.801484 132.347524 C 178.613192 134.910776 175.012967 136.059975 171.99632 135.79961 C 166.308683 135.974683 159.417978 134.551652 151.324205 131.535004 C 142.426891 127.086347 137.098379 119.046444 135.343157 107.415293 C 135.060346 106.611752 134.562061 104.246018 133.843811 100.318091 C 133.758519 98.823235 133.713629 97.270021 133.713629 95.662938 C 133.713629 84.031787 136.514801 73.150309 142.112657 63.014015 C 144.348208 59.086089 146.974308 55.485864 149.990955 52.208851 C 154.093954 47.845487 157.73907 45.663804 160.926301 45.663804 C 170.083981 45.578512 178.038592 48.420086 184.790136 54.193015 C 188.605836 57.492473 192.16566 64.827595 195.465118 76.19838 C 195.900556 77.715682 196.430265 82.568354 197.058733 90.747419 Z M 189.997444 97.516919 C 189.647298 88.188655 189.117589 82.056601 188.399339 79.129735 C 187.860652 76.91214 186.96733 74.474582 185.732839 71.803592 C 185.274955 70.371582 184.646487 68.23479 183.842945 65.393216 C 183.58258 64.782704 183.15163 63.99263 182.541118 63.014015 L 182.801484 62.722226 C 181.023816 60.769486 178.182242 58.197255 174.272272 55.005535 C 170.977303 52.967502 167.632955 51.948486 164.248205 51.948486 C 158.933159 51.948486 154.35432 55.149185 150.511686 61.550582 C 144.478391 71.57465 141.461744 82.860143 141.461744 95.402572 C 141.461744 98.41922 141.636817 101.305684 141.982474 104.061966 C 142.525651 104.865508 142.884775 105.799232 143.055359 106.863139 C 145.726349 119.576153 152.082856 126.870873 162.133858 128.733832 C 166.928173 129.627155 169.899929 129.941389 171.053617 129.681023 C 181.553525 129.483505 187.694557 120.096883 189.476714 101.521159 C 189.822371 97.790752 189.997444 96.457501 189.997444 97.516919 Z M 321.598684 103.541236 C 320.081382 110.027925 311.812536 116.335052 296.796635 122.453639 C 294.300719 123.427765 290.610713 124.505139 285.731106 125.676783 C 280.478908 126.911274 276.744011 127.934779 274.530905 128.733832 C 271.146155 129.972812 269.193415 130.502521 268.672684 130.331937 C 266.980309 129.811206 265.907424 128.962774 265.44954 127.79113 C 265.103882 126.466857 265.633591 125.362549 267.043156 124.473715 C 267.761405 124.015831 269.498671 123.571415 272.254952 123.135976 C 272.254952 122.965392 272.187617 122.682581 272.057434 122.292033 C 271.927251 121.87904 271.864404 121.54236 271.864404 121.281995 L 272.254952 117.928668 C 271.994587 114.458626 271.415499 106.414233 270.526665 93.808957 C 270.441373 92.462239 270.31119 90.280557 270.136117 87.263909 C 270.028379 87.093325 269.844328 86.873361 269.583963 86.612996 C 269.952065 84.377445 270.136117 81.971309 270.136117 79.390101 C 270.136117 75.134473 269.6917 70.425451 268.802866 65.263034 L 269.063232 64.998179 C 268.25969 64.912887 267.456149 64.867996 266.652607 64.867996 C 266.024139 64.867996 265.11286 64.935332 263.918771 65.065515 C 262.724681 65.195698 261.813402 65.263034 261.184934 65.263034 C 259.232194 65.263034 257.364745 64.46847 255.587078 62.883833 C 255.501786 61.887262 255.501786 61.299195 255.587078 61.128611 C 256.39062 59.346454 258.926938 58.596782 263.205011 58.879592 C 263.896326 58.879592 265.44954 58.655139 267.860164 58.197255 L 269.844328 57.806707 C 282.561831 57.178239 289.896952 56.949297 291.849693 57.12437 C 298.165798 57.667547 302.035367 58.111963 303.467376 58.457621 C 308.611837 59.714557 312.247975 61.89624 314.375789 64.998179 C 315.17933 66.151867 315.2736 67.884644 314.667577 70.209976 C 313.778744 73.572281 310.923703 76.588928 306.106943 79.259918 C 303.979129 80.431562 300.15894 81.993755 294.646376 83.946495 C 307.193295 86.505258 315.946959 91.304062 320.916347 98.333928 C 321.459523 99.137469 321.688465 100.870246 321.598684 103.541236 Z M 290.381771 62.722226 L 283.190299 62.722226 C 281.152266 62.722226 278.925693 62.99157 276.515069 63.534746 C 277.31861 69.132602 277.722626 72.782207 277.722626 74.474582 L 277.722626 82.478573 C 282.341867 81.764813 288.702863 80.027547 296.796635 77.271265 C 300.962482 75.839255 303.579603 74.375822 304.64351 72.876477 C 306.075519 70.815999 306.78928 69.298697 306.78928 68.320082 C 306.78928 66.28205 304.477414 64.728836 299.858173 63.664929 C 296.751745 63.036461 293.595937 62.722226 290.381771 62.722226 Z M 313.204144 104.744303 C 313.895459 103.312294 313.895459 102.109226 313.204144 101.130611 C 306.973331 93.234357 297.546308 89.283986 284.914097 89.283986 C 282.876065 89.283986 280.649492 89.369278 278.243357 89.544351 C 278.696751 98.787323 279.37011 108.250258 280.258944 117.928668 C 280.08836 118.557136 279.998578 118.916261 279.998578 119.001553 C 280.348725 119.63451 280.649492 120.339292 280.909857 121.120389 C 286.422421 120.509877 292.424292 118.741188 298.910982 115.814321 C 306.376286 112.429571 311.139177 108.739565 313.204144 104.744303 Z M 398.123664 116.985966 C 398.837424 120.11035 396.700633 121.802726 391.708799 122.063091 C 391.708799 122.063091 389.585475 122.193274 385.329847 122.453639 C 381.684732 122.821742 373.721142 123.495101 361.439078 124.473715 C 358.593015 124.6443 353.093918 125.133607 344.93281 125.937148 C 342.697259 126.197514 341.004884 126.426456 339.855685 126.619485 C 338.706486 126.794559 338.392252 126.879851 338.912982 126.879851 C 336.439511 126.879851 334.486771 126.076309 333.054761 124.473715 C 332.96498 123.670174 332.924578 123.050684 332.924578 122.615245 C 332.924578 122.072069 332.96498 121.757835 333.054761 121.672543 C 334.114179 119.805094 336.071408 118.687319 338.912982 118.319216 C 339.195793 118.319216 341.59295 118.144143 346.104454 117.798485 C 346.212191 117.798485 346.310951 117.713193 346.400732 117.53812 C 346.571316 113.893004 346.126899 109.713691 345.062992 105.004669 L 345.062992 97.516919 C 345.062992 93.894249 344.533284 86.168579 343.469377 74.344399 C 343.361639 72.997681 343.087807 69.123624 342.656857 62.722226 C 342.113681 62.376569 341.395432 62.246386 340.506598 62.331678 C 339.272107 62.506752 338.562836 62.547153 338.392252 62.461861 L 334.127646 61.94113 C 331.717022 61.312662 330.513954 59.75047 330.513954 57.254553 C 330.513954 54.606009 333.140053 53.281736 338.392252 53.281736 C 338.823201 53.281736 340.520065 53.367029 343.469377 53.542102 C 345.139306 53.627394 346.378287 53.627394 347.181828 53.542102 C 349.502671 53.281736 353.996219 53.097685 360.657982 52.989948 C 363.674629 52.989948 365.182953 54.278307 365.182953 56.864005 C 365.182953 59.880652 362.610722 61.299195 357.466261 61.128611 C 354.081511 61.03883 351.814536 61.08372 350.660848 61.258793 C 350.660848 61.626896 350.880812 64.293397 351.316251 69.262785 C 351.684354 73.172755 351.868405 76.858272 351.868405 80.332803 L 351.868405 86.873361 C 351.868405 88.480444 352.398114 94.437425 353.462021 104.744303 C 353.807678 108.021316 354.157825 111.796614 354.503483 116.074687 C 354.701001 116.335052 354.925454 116.465235 355.185819 116.465235 C 358.575059 116.91863 361.501925 117.048813 363.975396 116.855783 C 365.842844 116.68071 369.182704 116.420344 374.003953 116.074687 L 380.382905 115.684139 C 383.484844 115.48662 386.286017 115.042203 388.781933 114.346399 C 388.781933 113.457566 388.561969 111.850483 388.13102 109.52964 L 387.183829 104.744303 C 387.27361 103.85547 387.314011 102.562621 387.314011 100.870246 C 386.968354 98.549402 386.609229 96.497903 386.241126 94.720236 C 386.326418 94.720236 386.514959 94.590053 386.79328 94.329687 C 386.707988 93.440854 387.282588 92.691181 388.521568 92.085158 C 389.495694 91.541982 390.474308 91.26815 391.448434 91.26815 C 392.970225 91.26815 394.074533 92.246764 394.770337 94.199505 C 395.313513 95.806588 395.497565 97.454072 395.322492 99.146447 C 394.954389 102.163095 395.313513 107.0023 396.399866 113.664062 C 396.920596 114.382312 397.495196 115.48662 398.123664 116.985966 Z M 460.117562 90.747419 C 460.660738 97.409182 460.086139 104.605142 458.389275 112.330812 C 457.329857 117.407937 456.037008 121.228126 454.519706 123.786889 C 452.562477 127.086347 449.680501 129.941389 445.860312 132.347524 C 441.672021 134.910776 438.067307 136.059975 435.050659 135.79961 C 429.367511 135.974683 422.476807 134.551652 414.383034 131.535004 C 405.48572 127.086347 400.157208 119.046444 398.397497 107.415293 C 398.119175 106.611752 397.6164 104.246018 396.90264 100.318091 C 396.812859 98.823235 396.772457 97.270021 396.772457 95.662938 C 396.772457 84.031787 399.569141 73.150309 405.171486 63.014015 C 407.407037 59.086089 410.033136 55.485864 413.045295 52.208851 C 417.148294 47.845487 420.79341 45.663804 423.98513 45.663804 C 433.14281 45.578512 441.097421 48.420086 447.844476 54.193015 C 451.664665 57.492473 455.224488 64.827595 458.519457 76.19838 C 458.954896 77.715682 459.489094 82.568354 460.117562 90.747419 Z M 453.051784 97.516919 C 452.706127 88.188655 452.171929 82.056601 451.458168 79.129735 C 450.914992 76.91214 450.026159 74.474582 448.787178 71.803592 C 448.333784 70.371582 447.705315 68.23479 446.901774 65.393216 C 446.641408 64.782704 446.20597 63.99263 445.599947 63.014015 L 445.860312 62.722226 C 444.078156 60.769486 441.236582 58.197255 437.331101 55.005535 C 434.031643 52.967502 430.691784 51.948486 427.307033 51.948486 C 421.987499 51.948486 417.408659 55.149185 413.566025 61.550582 C 407.53722 71.57465 404.520572 82.860143 404.520572 95.402572 C 404.520572 98.41922 404.691157 101.305684 405.041303 104.061966 C 405.584479 104.865508 405.939115 105.799232 406.114188 106.863139 C 408.785178 119.576153 415.141685 126.870873 425.188198 128.733832 C 429.987001 129.627155 432.958758 129.941389 434.107957 129.681023 C 444.612354 129.483505 450.753386 120.096883 452.531053 101.521159 C 452.8812 97.790752 453.051784 96.457501 453.051784 97.516919 Z M 511.580129 91.919063 C 511.665421 95.478886 511.494837 99.528017 511.059398 104.061966 C 510.345638 111.702344 508.33454 117.255309 505.039571 120.729841 C 503.454933 122.422216 499.863686 124.244773 494.261341 126.197514 C 491.940498 127.001055 489.184216 127.400582 485.996984 127.400582 C 481.718912 127.400582 477.67427 126.641931 473.854081 125.124629 C 469.230351 123.25718 466.388777 120.599658 465.32487 117.147572 C 464.956767 116.689688 464.552752 116.06122 464.121802 115.257678 C 463.663918 112.591177 462.950158 108.595915 461.971543 103.28087 L 461.971543 90.065082 C 461.971543 88.826102 462.231909 86.276316 462.752639 82.415726 C 463.295816 78.532691 463.7537 76.144511 464.121802 75.255678 C 467.223742 67.009277 470.639915 62.484306 474.374812 61.680765 C 476.067187 61.312662 477.934635 61.128611 479.972668 61.128611 C 486.463847 61.128611 492.420827 62.731205 497.84361 65.94537 C 498.103975 66.115955 498.548392 66.205736 499.17686 66.205736 C 499.266641 65.94537 499.351934 64.836573 499.437226 62.883833 C 499.527007 62.601022 499.482116 61.03883 499.307043 58.197255 C 499.136459 54.291775 500.424819 52.339034 503.1811 52.339034 C 505.937382 52.339034 507.445706 53.142576 507.706071 54.745169 C 507.706071 55.638492 507.620779 58.924483 507.445706 64.607631 L 507.185341 73.787756 C 507.270633 75.394839 507.360414 76.068197 507.445706 75.807832 C 507.100049 77.132104 506.480558 77.935646 505.591725 78.218456 C 503.1811 78.999553 501.533616 79.039954 500.644782 78.348639 C 500.209344 78.348639 499.720036 78.204989 499.17686 77.922179 C 498.745911 76.687687 497.767296 75.049181 496.249994 73.00666 C 494.207472 71.314284 491.581373 69.850851 488.371696 68.611871 C 485.179976 67.354935 482.338402 66.726467 479.842485 66.726467 C 476.91113 66.726467 474.558863 68.993441 472.781196 73.52739 C 470.28528 80.018569 469.176482 88.067451 469.459293 97.683014 C 469.634366 102.023934 469.764549 104.780216 469.849841 105.95186 C 470.653382 112.784207 473.279482 117.354069 477.728139 119.652467 C 479.941245 120.824111 482.10946 121.457068 484.237274 121.54236 C 494.826963 121.977799 501.012885 117.309178 502.790552 107.545476 C 503.769167 102.207985 503.854459 97.79973 503.050918 94.329687 C 502.965626 93.894249 502.920735 93.449832 502.920735 92.996437 C 502.920735 90.778842 504.604132 89.544351 507.966437 89.283986 C 508.594905 89.283986 509.358045 89.575774 510.246879 90.163841 C 511.135712 90.724973 511.580129 91.31304 511.580129 91.919063 Z M 595.830779 119.001553 C 596.109101 119.63451 596.252751 120.249511 596.252751 120.860023 C 596.252751 123.180866 594.829719 124.743059 591.988145 125.5466 C 591.00953 125.806966 588.114087 125.937148 583.297328 125.937148 C 580.909149 125.937148 574.56162 127.315289 564.254742 130.071571 C 562.647659 130.502521 561.040576 130.677594 559.437982 130.592302 C 558.82747 130.592302 558.145133 130.201754 557.386482 129.420658 C 556.627831 128.617116 556.246261 127.898867 556.246261 127.270399 C 556.246261 125.232366 558.472834 123.724043 562.921491 122.745428 C 566.651899 121.941886 568.963764 121.228126 569.852597 120.599658 C 566.382555 114.997313 562.952915 108.999931 559.568164 102.598533 C 558.58955 100.556012 556.506627 96.022063 553.314906 88.992197 L 550.908771 83.816312 C 548.780957 85.311169 546.298507 87.524275 543.452444 90.45563 C 539.546963 94.468848 537.149806 96.825604 536.260973 97.516919 C 535.717797 97.974803 534.730204 98.778344 533.298194 99.927543 C 533.123121 107.567921 533.482245 113.480011 534.371079 117.668303 C 535.434986 117.753595 536.898419 117.645857 538.765867 117.340601 C 540.633316 117.017389 541.966566 116.855783 542.770107 116.855783 C 545.180732 116.855783 546.3838 118.144143 546.3838 120.729841 C 546.3838 124.024809 542.608501 125.447841 535.053416 124.994446 C 534.07929 124.904665 532.60239 125.133607 530.627204 125.676783 C 528.674464 126.197514 527.255921 126.457879 526.362599 126.457879 C 525.49621 126.457879 524.216829 126.619485 522.524454 126.947187 C 520.832079 127.247954 519.53923 127.400582 518.650396 127.400582 C 516.607874 127.400582 514.875098 126.956165 513.443088 126.067331 C 512.922357 125.717185 512.702394 125.187476 512.792175 124.473715 C 513.137832 121.717433 514.731448 120.249511 517.577511 120.078927 C 518.72671 119.989146 520.428063 119.796116 522.68606 119.49086 C 524.966501 119.167648 526.102233 118.242902 526.102233 116.7256 L 526.102233 113.013149 C 526.102233 112.384681 526.061832 111.62603 525.972051 110.732707 L 525.972051 100.187909 C 525.886758 100.012836 525.671284 99.667178 525.321137 99.146447 C 525.756576 97.629145 525.931649 95.27239 525.841868 92.085158 C 525.756576 87.982159 525.756576 83.892626 525.841868 79.812072 C 525.931649 75.013269 526.245883 70.434429 526.789059 66.075553 C 526.959643 64.728836 526.874351 63.970185 526.528694 63.795111 C 525.635371 63.884893 524.095624 64.176681 521.904964 64.674967 C 519.736748 65.150807 518.075797 65.393216 516.926598 65.393216 C 513.537358 65.393216 511.844983 64.154236 511.844983 61.680765 C 511.844983 60.073682 514.331922 58.825724 519.30131 57.93689 L 534.240896 55.135718 C 538.949919 54.246884 541.046309 53.802467 540.525578 53.802467 C 542.999049 53.802467 544.233541 54.691301 544.233541 56.473457 C 544.233541 57.883021 543.789124 59.17587 542.90029 60.347515 C 542.294267 60.693172 540.785944 61.074742 538.375319 61.483246 C 535.98714 61.873794 534.739182 62.13416 534.631444 62.264342 C 534.546152 62.394525 534.285787 64.329309 533.850348 68.059717 C 533.307172 72.508374 533.037829 75.493598 533.037829 77.0109 L 533.037829 82.869121 C 533.037829 82.415726 532.992938 83.663684 532.907646 86.612996 C 532.907646 86.612996 532.907646 87.54672 532.907646 89.414168 L 533.298194 89.804716 L 562.921491 62.071313 C 561.660066 61.986021 559.752216 61.89624 557.188963 61.810948 C 552.830088 61.725655 550.518222 59.98839 550.257857 56.60364 C 550.257857 55.970682 550.648405 55.310791 551.429501 54.614987 C 552.233043 53.901226 552.991694 53.45681 553.705454 53.281736 C 554.163338 53.088707 558.656886 52.900166 567.181608 52.729582 C 569.049056 52.639801 572.739062 52.509618 578.251626 52.339034 C 579.225752 52.424326 580.249257 52.424326 581.308675 52.339034 L 584.500395 52.078669 C 587.539488 52.078669 589.501207 53.012393 590.394529 54.875352 C 590.91526 56.02904 590.556135 57.362291 589.317155 58.879592 C 588.86376 59.315031 587.844744 59.759448 586.260106 60.217332 C 585.281492 60.477697 583.414043 60.477697 580.657761 60.217332 C 579.768928 60.105105 578.036151 60.105105 575.450453 60.217332 C 575.190088 61.106165 574.660379 61.766057 573.856838 62.201496 C 571.535994 63.525768 566.382555 68.463732 558.39652 77.0109 C 559.262908 79.313787 561.031597 83.748977 563.702587 90.325447 C 566.737191 97.705459 568.519347 101.534626 569.040078 101.817437 C 570.297014 104.461493 571.630265 107.033723 573.044318 109.52964 C 576.51436 115.585379 578.740933 118.611005 579.715059 118.611005 C 582.296268 118.328194 586.161347 117.843376 591.305808 117.147572 C 591.934276 116.950053 592.778219 117.06228 593.842126 117.475273 C 594.906033 117.865821 595.570414 118.373085 595.830779 119.001553 Z M 644.254253 103.931784 C 644.685203 109.359055 644.590933 112.91439 643.957975 114.606765 C 641.31392 121.901485 632.654526 126.480325 617.984283 128.343284 C 612.99245 128.953796 608.014084 126.59704 603.044696 121.281995 C 603.044696 122.063091 603.21528 124.460248 603.565427 128.473466 C 603.843749 131.404822 603.803347 133.801979 603.435244 135.669427 C 601.217649 137.078992 599.439982 137.783774 598.093265 137.783774 C 596.055232 137.783774 595.036216 135.790632 595.036216 131.79537 C 595.036216 131.081609 595.076617 129.972812 595.166398 128.473466 C 595.251691 126.956165 595.296581 125.838389 595.296581 125.124629 C 595.296581 123.625283 595.166398 122.561376 594.906033 121.932908 L 594.906033 114.606765 C 594.906033 114.328443 595.036216 113.924428 595.296581 113.403697 C 595.2068 111.711322 595.265158 109.803472 595.458187 107.675658 C 595.633261 105.983283 595.633261 104.964267 595.458187 104.61412 C 595.004792 103.725287 594.77585 103.182111 594.77585 102.989081 C 595.121508 100.51561 596.944066 99.27663 600.243524 99.27663 C 602.371337 99.27663 603.659697 100.026303 604.117581 101.521159 C 604.117581 107.837265 605.985029 113.134354 609.715437 117.407937 C 612.907158 121.053053 615.878914 122.73645 618.635196 122.453639 C 626.553896 121.672543 632.066459 119.58962 635.172888 116.20487 C 636.515116 114.77286 637.188475 112.546287 637.188475 109.52964 C 637.188475 104.106857 635.181866 100.057726 631.168648 97.386736 C 629.386491 96.237537 626.100501 95.303813 621.306186 94.590053 C 618.720488 94.244395 617.041581 94.069322 616.260484 94.069322 C 612.072193 94.154614 608.198135 92.906656 604.638312 90.325447 C 600.732831 87.569165 598.780091 84.152992 598.780091 80.072438 L 598.780091 72.324323 C 598.780091 70.631948 599.754216 66.681576 601.706957 60.477697 L 603.174879 55.786631 C 603.973931 53.923672 604.997437 52.684692 606.231928 52.078669 C 609.27102 50.556878 612.471719 49.798227 615.834024 49.798227 C 622.410495 49.798227 627.258678 52.469217 630.387551 57.806707 C 630.647917 58.067073 631.092334 58.466599 631.720802 59.009775 C 631.806094 57.752839 631.981167 55.8405 632.241533 53.281736 C 632.156241 52.73856 632.066459 51.620785 631.981167 49.92841 C 631.895875 48.693919 632.510876 47.845487 633.835148 47.392092 C 634.010222 47.30231 634.499529 47.172128 635.303071 47.001544 C 637.080738 46.651397 638.283805 47.225996 638.912274 48.725342 C 639.347712 49.789249 639.522786 51.306551 639.433004 53.281736 C 639.26242 56.558749 638.687821 63.795111 637.709206 74.995312 C 637.884279 76.427322 637.884279 78.380063 637.709206 80.853534 C 637.273767 82.545909 635.940517 83.389852 633.704966 83.389852 C 632.555767 83.389852 631.446969 83.089085 630.387551 82.478573 C 629.844375 80.786198 629.570543 80.072438 629.570543 80.332803 C 629.745616 77.922179 629.256309 74.72148 628.10711 70.730707 C 627.218276 68.688185 625.81769 65.761319 623.90984 61.94113 C 621.997501 58.120941 619.752972 56.12331 617.171763 55.952726 C 613.436867 55.669916 611.125001 56.864005 610.236168 59.530506 C 609.975802 60.419339 609.486495 62.116204 608.772735 64.607631 C 607.708828 68.257236 607.044447 71.413044 606.784082 74.084034 C 606.69879 75.058159 606.613498 75.448707 606.523716 75.255678 C 606.959155 78.119697 607.304813 80.041014 607.565178 81.01514 C 608.458501 83.771422 610.150876 85.63887 612.646792 86.612996 C 614.164094 87.223508 616.835084 87.614056 620.650784 87.78464 C 632.654526 88.502889 640.07494 92.677714 642.916514 100.318091 C 643.351952 101.036341 643.796369 102.239409 644.254253 103.931784 Z M 644.254253 103.931784 " stroke="#eeab16" stroke-width="24.833271" stroke-opacity="1" stroke-miterlimit="4"/></g><g fill="#ffffff" fill-opacity="1"><g transform="translate(14.872797, 435.852922)"><g><path d="M 58.015625 -36.78125 C 58.472656 -30.976562 57.96875 -24.710938 56.5 -17.984375 C 55.570312 -13.578125 54.453125 -10.25 53.140625 -8 C 51.429688 -5.144531 48.914062 -2.671875 45.59375 -0.578125 C 41.957031 1.660156 38.828125 2.664062 36.203125 2.4375 C 31.242188 2.59375 25.25 1.351562 18.21875 -1.28125 C 10.476562 -5.144531 5.835938 -12.144531 4.296875 -22.28125 C 4.054688 -22.96875 3.628906 -25.015625 3.015625 -28.421875 C 2.941406 -29.734375 2.90625 -31.085938 2.90625 -32.484375 C 2.90625 -42.617188 5.335938 -52.09375 10.203125 -60.90625 C 12.140625 -64.3125 14.421875 -67.445312 17.046875 -70.3125 C 20.609375 -74.09375 23.78125 -75.984375 26.5625 -75.984375 C 34.53125 -76.066406 41.453125 -73.59375 47.328125 -68.5625 C 50.660156 -65.695312 53.753906 -59.316406 56.609375 -49.421875 C 57.003906 -48.109375 57.472656 -43.894531 58.015625 -36.78125 Z M 51.859375 -30.859375 C 51.546875 -38.984375 51.082031 -44.320312 50.46875 -46.875 C 50 -48.800781 49.222656 -50.925781 48.140625 -53.25 C 47.753906 -54.488281 47.210938 -56.34375 46.515625 -58.8125 C 46.285156 -59.351562 45.898438 -60.050781 45.359375 -60.90625 L 45.59375 -61.140625 C 44.050781 -62.835938 41.578125 -65.082031 38.171875 -67.875 C 35.304688 -69.644531 32.40625 -70.53125 29.46875 -70.53125 C 24.820312 -70.53125 20.835938 -67.75 17.515625 -62.1875 C 12.253906 -53.445312 9.625 -43.625 9.625 -32.71875 C 9.625 -30.082031 9.78125 -27.566406 10.09375 -25.171875 C 10.5625 -24.472656 10.867188 -23.660156 11.015625 -22.734375 C 13.335938 -11.679688 18.867188 -5.34375 27.609375 -3.71875 C 31.785156 -2.9375 34.378906 -2.664062 35.390625 -2.90625 C 44.515625 -3.050781 49.847656 -11.207031 51.390625 -27.375 C 51.703125 -30.625 51.859375 -31.785156 51.859375 -30.859375 Z M 51.859375 -30.859375 "/></g></g></g><g fill="#ffffff" fill-opacity="1"><g transform="translate(71.721795, 435.852922)"><g><path d="M 51.515625 -25.640625 C 50.191406 -19.992188 43 -14.503906 29.9375 -9.171875 C 27.769531 -8.316406 24.554688 -7.382812 20.296875 -6.375 C 15.734375 -5.289062 12.488281 -4.40625 10.5625 -3.71875 C 7.625 -2.632812 5.921875 -2.171875 5.453125 -2.328125 C 3.984375 -2.785156 3.054688 -3.519531 2.671875 -4.53125 C 2.359375 -5.6875 2.820312 -6.648438 4.0625 -7.421875 C 4.675781 -7.804688 6.179688 -8.191406 8.578125 -8.578125 C 8.578125 -8.734375 8.519531 -8.984375 8.40625 -9.328125 C 8.289062 -9.679688 8.234375 -9.972656 8.234375 -10.203125 L 8.578125 -13.109375 C 8.347656 -16.128906 7.847656 -23.128906 7.078125 -34.109375 C 7.003906 -35.265625 6.890625 -37.160156 6.734375 -39.796875 C 6.648438 -39.953125 6.492188 -40.144531 6.265625 -40.375 C 6.578125 -42.3125 6.734375 -44.398438 6.734375 -46.640625 C 6.734375 -50.347656 6.34375 -54.445312 5.5625 -58.9375 L 5.796875 -59.171875 C 5.097656 -59.242188 4.40625 -59.28125 3.71875 -59.28125 C 3.175781 -59.28125 2.378906 -59.222656 1.328125 -59.109375 C 0.285156 -58.992188 -0.503906 -58.9375 -1.046875 -58.9375 C -2.742188 -58.9375 -4.367188 -59.632812 -5.921875 -61.03125 C -5.992188 -61.875 -5.992188 -62.375 -5.921875 -62.53125 C -5.222656 -64.082031 -3.015625 -64.738281 0.703125 -64.5 C 1.316406 -64.5 2.664062 -64.691406 4.75 -65.078125 L 6.5 -65.4375 C 17.5625 -65.976562 23.941406 -66.171875 25.640625 -66.015625 C 31.128906 -65.546875 34.492188 -65.160156 35.734375 -64.859375 C 40.222656 -63.773438 43.394531 -61.878906 45.25 -59.171875 C 45.945312 -58.160156 46.023438 -56.648438 45.484375 -54.640625 C 44.703125 -51.703125 42.222656 -49.070312 38.046875 -46.75 C 36.191406 -45.75 32.867188 -44.394531 28.078125 -42.6875 C 38.984375 -40.445312 46.601562 -36.273438 50.9375 -30.171875 C 51.394531 -29.472656 51.585938 -27.960938 51.515625 -25.640625 Z M 24.359375 -61.140625 L 18.09375 -61.140625 C 16.320312 -61.140625 14.390625 -60.90625 12.296875 -60.4375 C 12.992188 -55.570312 13.34375 -52.40625 13.34375 -50.9375 L 13.34375 -43.96875 C 17.363281 -44.582031 22.894531 -46.09375 29.9375 -48.5 C 33.570312 -49.726562 35.851562 -51.003906 36.78125 -52.328125 C 38.019531 -54.097656 38.640625 -55.410156 38.640625 -56.265625 C 38.640625 -58.046875 36.625 -59.398438 32.59375 -60.328125 C 29.894531 -60.867188 27.148438 -61.140625 24.359375 -61.140625 Z M 44.203125 -24.59375 C 44.816406 -25.832031 44.816406 -26.878906 44.203125 -27.734375 C 38.785156 -34.609375 30.585938 -38.046875 19.609375 -38.046875 C 17.828125 -38.046875 15.894531 -37.972656 13.8125 -37.828125 C 14.195312 -29.773438 14.773438 -21.535156 15.546875 -13.109375 C 15.390625 -12.566406 15.3125 -12.257812 15.3125 -12.1875 C 15.625 -11.644531 15.894531 -11.023438 16.125 -10.328125 C 20.914062 -10.867188 26.132812 -12.414062 31.78125 -14.96875 C 38.28125 -17.90625 42.421875 -21.113281 44.203125 -24.59375 Z M 44.203125 -24.59375 "/></g></g></g><g fill="#ffffff" fill-opacity="1"><g transform="translate(128.338764, 435.852922)"><g><path d="M 58.015625 -36.78125 C 58.472656 -30.976562 57.96875 -24.710938 56.5 -17.984375 C 55.570312 -13.578125 54.453125 -10.25 53.140625 -8 C 51.429688 -5.144531 48.914062 -2.671875 45.59375 -0.578125 C 41.957031 1.660156 38.828125 2.664062 36.203125 2.4375 C 31.242188 2.59375 25.25 1.351562 18.21875 -1.28125 C 10.476562 -5.144531 5.835938 -12.144531 4.296875 -22.28125 C 4.054688 -22.96875 3.628906 -25.015625 3.015625 -28.421875 C 2.941406 -29.734375 2.90625 -31.085938 2.90625 -32.484375 C 2.90625 -42.617188 5.335938 -52.09375 10.203125 -60.90625 C 12.140625 -64.3125 14.421875 -67.445312 17.046875 -70.3125 C 20.609375 -74.09375 23.78125 -75.984375 26.5625 -75.984375 C 34.53125 -76.066406 41.453125 -73.59375 47.328125 -68.5625 C 50.660156 -65.695312 53.753906 -59.316406 56.609375 -49.421875 C 57.003906 -48.109375 57.472656 -43.894531 58.015625 -36.78125 Z M 51.859375 -30.859375 C 51.546875 -38.984375 51.082031 -44.320312 50.46875 -46.875 C 50 -48.800781 49.222656 -50.925781 48.140625 -53.25 C 47.753906 -54.488281 47.210938 -56.34375 46.515625 -58.8125 C 46.285156 -59.351562 45.898438 -60.050781 45.359375 -60.90625 L 45.59375 -61.140625 C 44.050781 -62.835938 41.578125 -65.082031 38.171875 -67.875 C 35.304688 -69.644531 32.40625 -70.53125 29.46875 -70.53125 C 24.820312 -70.53125 20.835938 -67.75 17.515625 -62.1875 C 12.253906 -53.445312 9.625 -43.625 9.625 -32.71875 C 9.625 -30.082031 9.78125 -27.566406 10.09375 -25.171875 C 10.5625 -24.472656 10.867188 -23.660156 11.015625 -22.734375 C 13.335938 -11.679688 18.867188 -5.34375 27.609375 -3.71875 C 31.785156 -2.9375 34.378906 -2.664062 35.390625 -2.90625 C 44.515625 -3.050781 49.847656 -11.207031 51.390625 -27.375 C 51.703125 -30.625 51.859375 -31.785156 51.859375 -30.859375 Z M 51.859375 -30.859375 "/></g></g></g><g fill="#ffffff" fill-opacity="1"><g transform="translate(185.187763, 435.852922)"><g/></g></g><g fill="#ffffff" fill-opacity="1"><g transform="translate(243.196958, 435.852922)"><g><path d="M 51.515625 -25.640625 C 50.191406 -19.992188 43 -14.503906 29.9375 -9.171875 C 27.769531 -8.316406 24.554688 -7.382812 20.296875 -6.375 C 15.734375 -5.289062 12.488281 -4.40625 10.5625 -3.71875 C 7.625 -2.632812 5.921875 -2.171875 5.453125 -2.328125 C 3.984375 -2.785156 3.054688 -3.519531 2.671875 -4.53125 C 2.359375 -5.6875 2.820312 -6.648438 4.0625 -7.421875 C 4.675781 -7.804688 6.179688 -8.191406 8.578125 -8.578125 C 8.578125 -8.734375 8.519531 -8.984375 8.40625 -9.328125 C 8.289062 -9.679688 8.234375 -9.972656 8.234375 -10.203125 L 8.578125 -13.109375 C 8.347656 -16.128906 7.847656 -23.128906 7.078125 -34.109375 C 7.003906 -35.265625 6.890625 -37.160156 6.734375 -39.796875 C 6.648438 -39.953125 6.492188 -40.144531 6.265625 -40.375 C 6.578125 -42.3125 6.734375 -44.398438 6.734375 -46.640625 C 6.734375 -50.347656 6.34375 -54.445312 5.5625 -58.9375 L 5.796875 -59.171875 C 5.097656 -59.242188 4.40625 -59.28125 3.71875 -59.28125 C 3.175781 -59.28125 2.378906 -59.222656 1.328125 -59.109375 C 0.285156 -58.992188 -0.503906 -58.9375 -1.046875 -58.9375 C -2.742188 -58.9375 -4.367188 -59.632812 -5.921875 -61.03125 C -5.992188 -61.875 -5.992188 -62.375 -5.921875 -62.53125 C -5.222656 -64.082031 -3.015625 -64.738281 0.703125 -64.5 C 1.316406 -64.5 2.664062 -64.691406 4.75 -65.078125 L 6.5 -65.4375 C 17.5625 -65.976562 23.941406 -66.171875 25.640625 -66.015625 C 31.128906 -65.546875 34.492188 -65.160156 35.734375 -64.859375 C 40.222656 -63.773438 43.394531 -61.878906 45.25 -59.171875 C 45.945312 -58.160156 46.023438 -56.648438 45.484375 -54.640625 C 44.703125 -51.703125 42.222656 -49.070312 38.046875 -46.75 C 36.191406 -45.75 32.867188 -44.394531 28.078125 -42.6875 C 38.984375 -40.445312 46.601562 -36.273438 50.9375 -30.171875 C 51.394531 -29.472656 51.585938 -27.960938 51.515625 -25.640625 Z M 24.359375 -61.140625 L 18.09375 -61.140625 C 16.320312 -61.140625 14.390625 -60.90625 12.296875 -60.4375 C 12.992188 -55.570312 13.34375 -52.40625 13.34375 -50.9375 L 13.34375 -43.96875 C 17.363281 -44.582031 22.894531 -46.09375 29.9375 -48.5 C 33.570312 -49.726562 35.851562 -51.003906 36.78125 -52.328125 C 38.019531 -54.097656 38.640625 -55.410156 38.640625 -56.265625 C 38.640625 -58.046875 36.625 -59.398438 32.59375 -60.328125 C 29.894531 -60.867188 27.148438 -61.140625 24.359375 -61.140625 Z M 44.203125 -24.59375 C 44.816406 -25.832031 44.816406 -26.878906 44.203125 -27.734375 C 38.785156 -34.609375 30.585938 -38.046875 19.609375 -38.046875 C 17.828125 -38.046875 15.894531 -37.972656 13.8125 -37.828125 C 14.195312 -29.773438 14.773438 -21.535156 15.546875 -13.109375 C 15.390625 -12.566406 15.3125 -12.257812 15.3125 -12.1875 C 15.625 -11.644531 15.894531 -11.023438 16.125 -10.328125 C 20.914062 -10.867188 26.132812 -12.414062 31.78125 -14.96875 C 38.28125 -17.90625 42.421875 -21.113281 44.203125 -24.59375 Z M 44.203125 -24.59375 "/></g></g></g><g fill="#ffffff" fill-opacity="1"><g transform="translate(299.813914, 435.852922)"><g><path d="M 61.484375 -13.921875 C 62.109375 -11.210938 60.253906 -9.742188 55.921875 -9.515625 C 55.921875 -9.515625 54.0625 -9.398438 50.34375 -9.171875 C 47.175781 -8.859375 40.253906 -8.273438 29.578125 -7.421875 C 27.109375 -7.265625 22.316406 -6.84375 15.203125 -6.15625 C 13.265625 -5.914062 11.789062 -5.71875 10.78125 -5.5625 C 9.78125 -5.414062 9.515625 -5.34375 9.984375 -5.34375 C 7.816406 -5.34375 6.113281 -6.035156 4.875 -7.421875 C 4.789062 -8.117188 4.75 -8.660156 4.75 -9.046875 C 4.75 -9.515625 4.789062 -9.785156 4.875 -9.859375 C 5.800781 -11.484375 7.503906 -12.453125 9.984375 -12.765625 C 10.210938 -12.765625 12.300781 -12.914062 16.25 -13.21875 C 16.320312 -13.21875 16.394531 -13.296875 16.46875 -13.453125 C 16.625 -16.628906 16.238281 -20.265625 15.3125 -24.359375 L 15.3125 -30.859375 C 15.3125 -34.023438 14.847656 -40.753906 13.921875 -51.046875 C 13.847656 -52.203125 13.613281 -55.566406 13.21875 -61.140625 C 12.757812 -61.453125 12.144531 -61.566406 11.375 -61.484375 C 10.289062 -61.328125 9.671875 -61.289062 9.515625 -61.375 L 5.796875 -61.84375 C 3.710938 -62.382812 2.671875 -63.734375 2.671875 -65.890625 C 2.671875 -68.210938 4.953125 -69.375 9.515625 -69.375 C 9.898438 -69.375 11.367188 -69.296875 13.921875 -69.140625 C 15.390625 -69.066406 16.472656 -69.066406 17.171875 -69.140625 C 19.179688 -69.378906 23.085938 -69.535156 28.890625 -69.609375 C 31.515625 -69.609375 32.828125 -68.488281 32.828125 -66.25 C 32.828125 -63.613281 30.585938 -62.375 26.109375 -62.53125 C 23.160156 -62.613281 21.1875 -62.578125 20.1875 -62.421875 C 20.1875 -62.109375 20.378906 -59.785156 20.765625 -55.453125 C 21.078125 -52.046875 21.234375 -48.835938 21.234375 -45.828125 L 21.234375 -40.140625 C 21.234375 -38.742188 21.695312 -33.5625 22.625 -24.59375 C 22.9375 -21.726562 23.242188 -18.441406 23.546875 -14.734375 C 23.703125 -14.503906 23.894531 -14.390625 24.125 -14.390625 C 27.070312 -14.003906 29.625 -13.882812 31.78125 -14.03125 C 33.40625 -14.1875 36.304688 -14.421875 40.484375 -14.734375 L 46.0625 -15.078125 C 48.769531 -15.234375 51.207031 -15.625 53.375 -16.25 C 53.375 -17.019531 53.175781 -18.410156 52.78125 -20.421875 L 51.96875 -24.59375 C 52.050781 -25.363281 52.09375 -26.484375 52.09375 -27.953125 C 51.78125 -29.960938 51.46875 -31.742188 51.15625 -33.296875 C 51.238281 -33.296875 51.394531 -33.410156 51.625 -33.640625 C 51.550781 -34.421875 52.054688 -35.078125 53.140625 -35.609375 C 53.984375 -36.078125 54.832031 -36.3125 55.6875 -36.3125 C 57 -36.3125 57.96875 -35.460938 58.59375 -33.765625 C 59.050781 -32.367188 59.203125 -30.9375 59.046875 -29.46875 C 58.742188 -26.84375 59.054688 -22.628906 59.984375 -16.828125 C 60.441406 -16.203125 60.941406 -15.234375 61.484375 -13.921875 Z M 61.484375 -13.921875 "/></g></g></g><g fill="#ffffff" fill-opacity="1"><g transform="translate(357.242991, 435.852922)"><g><path d="M 58.015625 -36.78125 C 58.472656 -30.976562 57.96875 -24.710938 56.5 -17.984375 C 55.570312 -13.578125 54.453125 -10.25 53.140625 -8 C 51.429688 -5.144531 48.914062 -2.671875 45.59375 -0.578125 C 41.957031 1.660156 38.828125 2.664062 36.203125 2.4375 C 31.242188 2.59375 25.25 1.351562 18.21875 -1.28125 C 10.476562 -5.144531 5.835938 -12.144531 4.296875 -22.28125 C 4.054688 -22.96875 3.628906 -25.015625 3.015625 -28.421875 C 2.941406 -29.734375 2.90625 -31.085938 2.90625 -32.484375 C 2.90625 -42.617188 5.335938 -52.09375 10.203125 -60.90625 C 12.140625 -64.3125 14.421875 -67.445312 17.046875 -70.3125 C 20.609375 -74.09375 23.78125 -75.984375 26.5625 -75.984375 C 34.53125 -76.066406 41.453125 -73.59375 47.328125 -68.5625 C 50.660156 -65.695312 53.753906 -59.316406 56.609375 -49.421875 C 57.003906 -48.109375 57.472656 -43.894531 58.015625 -36.78125 Z M 51.859375 -30.859375 C 51.546875 -38.984375 51.082031 -44.320312 50.46875 -46.875 C 50 -48.800781 49.222656 -50.925781 48.140625 -53.25 C 47.753906 -54.488281 47.210938 -56.34375 46.515625 -58.8125 C 46.285156 -59.351562 45.898438 -60.050781 45.359375 -60.90625 L 45.59375 -61.140625 C 44.050781 -62.835938 41.578125 -65.082031 38.171875 -67.875 C 35.304688 -69.644531 32.40625 -70.53125 29.46875 -70.53125 C 24.820312 -70.53125 20.835938 -67.75 17.515625 -62.1875 C 12.253906 -53.445312 9.625 -43.625 9.625 -32.71875 C 9.625 -30.082031 9.78125 -27.566406 10.09375 -25.171875 C 10.5625 -24.472656 10.867188 -23.660156 11.015625 -22.734375 C 13.335938 -11.679688 18.867188 -5.34375 27.609375 -3.71875 C 31.785156 -2.9375 34.378906 -2.664062 35.390625 -2.90625 C 44.515625 -3.050781 49.847656 -11.207031 51.390625 -27.375 C 51.703125 -30.625 51.859375 -31.785156 51.859375 -30.859375 Z M 51.859375 -30.859375 "/></g></g></g><g fill="#ffffff" fill-opacity="1"><g transform="translate(414.09199, 435.852922)"><g><path d="M 45.9375 -35.734375 C 46.019531 -32.640625 45.867188 -29.117188 45.484375 -25.171875 C 44.859375 -18.523438 43.113281 -13.691406 40.25 -10.671875 C 38.863281 -9.203125 35.734375 -7.617188 30.859375 -5.921875 C 28.847656 -5.222656 26.453125 -4.875 23.671875 -4.875 C 19.953125 -4.875 16.429688 -5.53125 13.109375 -6.84375 C 9.085938 -8.46875 6.613281 -10.789062 5.6875 -13.8125 C 5.375 -14.195312 5.023438 -14.738281 4.640625 -15.4375 C 4.253906 -17.75 3.632812 -21.226562 2.78125 -25.875 L 2.78125 -37.359375 C 2.78125 -38.441406 3.007812 -40.664062 3.46875 -44.03125 C 3.9375 -47.394531 4.328125 -49.460938 4.640625 -50.234375 C 7.347656 -57.429688 10.328125 -61.375 13.578125 -62.0625 C 15.046875 -62.375 16.671875 -62.53125 18.453125 -62.53125 C 24.097656 -62.53125 29.28125 -61.140625 34 -58.359375 C 34.226562 -58.203125 34.613281 -58.125 35.15625 -58.125 C 35.226562 -58.351562 35.304688 -59.320312 35.390625 -61.03125 C 35.460938 -61.257812 35.421875 -62.609375 35.265625 -65.078125 C 35.109375 -68.484375 36.234375 -70.1875 38.640625 -70.1875 C 41.035156 -70.1875 42.347656 -69.488281 42.578125 -68.09375 C 42.578125 -67.320312 42.5 -64.460938 42.34375 -59.515625 L 42.109375 -51.515625 C 42.191406 -50.117188 42.269531 -49.535156 42.34375 -49.765625 C 42.03125 -48.609375 41.488281 -47.914062 40.71875 -47.6875 C 38.632812 -46.988281 37.203125 -46.945312 36.421875 -47.5625 C 36.035156 -47.5625 35.613281 -47.679688 35.15625 -47.921875 C 34.769531 -48.992188 33.914062 -50.421875 32.59375 -52.203125 C 30.820312 -53.671875 28.539062 -54.945312 25.75 -56.03125 C 22.96875 -57.113281 20.492188 -57.65625 18.328125 -57.65625 C 15.773438 -57.65625 13.726562 -55.6875 12.1875 -51.75 C 10.019531 -46.101562 9.050781 -39.101562 9.28125 -30.75 C 9.4375 -26.957031 9.550781 -24.554688 9.625 -23.546875 C 10.320312 -17.597656 12.601562 -13.617188 16.46875 -11.609375 C 18.40625 -10.597656 20.300781 -10.054688 22.15625 -9.984375 C 31.363281 -9.585938 36.738281 -13.644531 38.28125 -22.15625 C 39.132812 -26.800781 39.210938 -30.628906 38.515625 -33.640625 C 38.441406 -34.023438 38.40625 -34.414062 38.40625 -34.8125 C 38.40625 -36.738281 39.875 -37.816406 42.8125 -38.046875 C 43.351562 -38.046875 44.007812 -37.796875 44.78125 -37.296875 C 45.550781 -36.796875 45.9375 -36.273438 45.9375 -35.734375 Z M 45.9375 -35.734375 "/></g></g></g><g fill="#ffffff" fill-opacity="1"><g transform="translate(457.830898, 435.852922)"><g><path d="M 75.515625 -12.1875 C 75.753906 -11.644531 75.875 -11.101562 75.875 -10.5625 C 75.875 -8.550781 74.632812 -7.195312 72.15625 -6.5 C 71.3125 -6.269531 68.800781 -6.15625 64.625 -6.15625 C 62.53125 -6.15625 57 -4.953125 48.03125 -2.546875 C 46.632812 -2.160156 45.242188 -2.007812 43.859375 -2.09375 C 43.316406 -2.09375 42.710938 -2.4375 42.046875 -3.125 C 41.390625 -3.820312 41.0625 -4.441406 41.0625 -4.984375 C 41.0625 -6.765625 43 -8.082031 46.875 -8.9375 C 50.125 -9.632812 52.132812 -10.253906 52.90625 -10.796875 C 49.882812 -15.660156 46.90625 -20.878906 43.96875 -26.453125 C 43.113281 -28.234375 41.296875 -32.175781 38.515625 -38.28125 L 36.421875 -42.8125 C 34.566406 -41.5 32.40625 -39.566406 29.9375 -37.015625 C 26.53125 -33.523438 24.441406 -31.472656 23.671875 -30.859375 C 23.203125 -30.472656 22.347656 -29.773438 21.109375 -28.765625 C 20.960938 -22.117188 21.273438 -16.976562 22.046875 -13.34375 C 22.972656 -13.257812 24.25 -13.351562 25.875 -13.625 C 27.5 -13.894531 28.660156 -14.03125 29.359375 -14.03125 C 31.441406 -14.03125 32.484375 -12.910156 32.484375 -10.671875 C 32.484375 -7.804688 29.195312 -6.570312 22.625 -6.96875 C 21.769531 -7.039062 20.492188 -6.84375 18.796875 -6.375 C 17.097656 -5.914062 15.859375 -5.6875 15.078125 -5.6875 C 14.304688 -5.6875 13.1875 -5.550781 11.71875 -5.28125 C 10.25 -5.007812 9.128906 -4.875 8.359375 -4.875 C 6.578125 -4.875 5.066406 -5.257812 3.828125 -6.03125 C 3.359375 -6.34375 3.164062 -6.804688 3.25 -7.421875 C 3.5625 -9.816406 4.953125 -11.09375 7.421875 -11.25 C 8.429688 -11.332031 9.921875 -11.507812 11.890625 -11.78125 C 13.859375 -12.050781 14.84375 -12.84375 14.84375 -14.15625 L 14.84375 -17.40625 C 14.84375 -17.945312 14.804688 -18.601562 14.734375 -19.375 L 14.734375 -28.546875 C 14.660156 -28.691406 14.46875 -29 14.15625 -29.46875 C 14.539062 -30.78125 14.695312 -32.828125 14.625 -35.609375 C 14.539062 -39.171875 14.539062 -42.734375 14.625 -46.296875 C 14.695312 -50.472656 14.96875 -54.453125 15.4375 -58.234375 C 15.582031 -59.398438 15.503906 -60.0625 15.203125 -60.21875 C 14.421875 -60.132812 13.082031 -59.878906 11.1875 -59.453125 C 9.300781 -59.023438 7.851562 -58.8125 6.84375 -58.8125 C 3.90625 -58.8125 2.4375 -59.894531 2.4375 -62.0625 C 2.4375 -63.457031 4.601562 -64.539062 8.9375 -65.3125 L 21.921875 -67.75 C 26.023438 -68.519531 27.84375 -68.90625 27.375 -68.90625 C 29.539062 -68.90625 30.625 -68.132812 30.625 -66.59375 C 30.625 -65.351562 30.238281 -64.234375 29.46875 -63.234375 C 28.925781 -62.921875 27.609375 -62.585938 25.515625 -62.234375 C 23.429688 -61.890625 22.347656 -61.660156 22.265625 -61.546875 C 22.191406 -61.429688 21.960938 -59.75 21.578125 -56.5 C 21.117188 -52.632812 20.890625 -50.046875 20.890625 -48.734375 L 20.890625 -43.625 C 20.890625 -44.007812 20.847656 -42.925781 20.765625 -40.375 C 20.765625 -40.375 20.765625 -39.5625 20.765625 -37.9375 L 21.109375 -37.59375 L 46.875 -61.71875 C 45.789062 -61.800781 44.125 -61.878906 41.875 -61.953125 C 38.09375 -62.023438 36.082031 -63.535156 35.84375 -66.484375 C 35.84375 -67.023438 36.191406 -67.601562 36.890625 -68.21875 C 37.585938 -68.832031 38.242188 -69.21875 38.859375 -69.375 C 39.253906 -69.53125 43.160156 -69.6875 50.578125 -69.84375 C 52.203125 -69.914062 55.414062 -70.03125 60.21875 -70.1875 C 61.0625 -70.113281 61.945312 -70.113281 62.875 -70.1875 L 65.671875 -70.421875 C 68.296875 -70.421875 69.992188 -69.609375 70.765625 -67.984375 C 71.234375 -66.984375 70.925781 -65.820312 69.84375 -64.5 C 69.457031 -64.113281 68.566406 -63.726562 67.171875 -63.34375 C 66.316406 -63.113281 64.691406 -63.113281 62.296875 -63.34375 C 61.523438 -63.414062 60.019531 -63.414062 57.78125 -63.34375 C 57.539062 -62.570312 57.078125 -61.992188 56.390625 -61.609375 C 54.378906 -60.441406 49.890625 -56.148438 42.921875 -48.734375 C 43.703125 -46.710938 45.25 -42.84375 47.5625 -37.125 C 50.195312 -30.707031 51.742188 -27.378906 52.203125 -27.140625 C 53.285156 -24.828125 54.445312 -22.585938 55.6875 -20.421875 C 58.707031 -15.160156 60.640625 -12.53125 61.484375 -12.53125 C 63.734375 -12.757812 67.097656 -13.1875 71.578125 -13.8125 C 72.117188 -13.957031 72.851562 -13.859375 73.78125 -13.515625 C 74.707031 -13.171875 75.285156 -12.726562 75.515625 -12.1875 Z M 75.515625 -12.1875 "/></g></g></g><g fill="#ffffff" fill-opacity="1"><g transform="translate(528.718101, 435.852922)"><g><path d="M 46.75 -25.296875 C 47.132812 -20.578125 47.054688 -17.484375 46.515625 -16.015625 C 44.203125 -9.671875 36.664062 -5.6875 23.90625 -4.0625 C 19.570312 -3.519531 15.238281 -5.566406 10.90625 -10.203125 C 10.90625 -9.515625 11.0625 -7.425781 11.375 -3.9375 C 11.601562 -1.382812 11.5625 0.703125 11.25 2.328125 C 9.320312 3.554688 7.773438 4.171875 6.609375 4.171875 C 4.828125 4.171875 3.9375 2.429688 3.9375 -1.046875 C 3.9375 -1.660156 3.972656 -2.625 4.046875 -3.9375 C 4.128906 -5.257812 4.171875 -6.226562 4.171875 -6.84375 C 4.171875 -8.15625 4.054688 -9.082031 3.828125 -9.625 L 3.828125 -16.015625 C 3.828125 -16.242188 3.941406 -16.585938 4.171875 -17.046875 C 4.097656 -18.523438 4.140625 -20.191406 4.296875 -22.046875 C 4.453125 -23.515625 4.453125 -24.40625 4.296875 -24.71875 C 3.910156 -25.488281 3.71875 -25.953125 3.71875 -26.109375 C 4.019531 -28.273438 5.601562 -29.359375 8.46875 -29.359375 C 10.320312 -29.359375 11.441406 -28.695312 11.828125 -27.375 C 11.828125 -21.882812 13.453125 -17.285156 16.703125 -13.578125 C 19.492188 -10.398438 22.085938 -8.929688 24.484375 -9.171875 C 31.367188 -9.859375 36.160156 -11.675781 38.859375 -14.625 C 40.023438 -15.851562 40.609375 -17.785156 40.609375 -20.421875 C 40.609375 -25.140625 38.867188 -28.65625 35.390625 -30.96875 C 33.835938 -31.976562 30.972656 -32.789062 26.796875 -33.40625 C 24.554688 -33.71875 23.085938 -33.875 22.390625 -33.875 C 18.753906 -33.800781 15.390625 -34.882812 12.296875 -37.125 C 8.890625 -39.519531 7.1875 -42.5 7.1875 -46.0625 L 7.1875 -52.78125 C 7.1875 -54.25 8.039062 -57.691406 9.75 -63.109375 L 11.015625 -67.171875 C 11.710938 -68.796875 12.601562 -69.878906 13.6875 -70.421875 C 16.320312 -71.734375 19.109375 -72.390625 22.046875 -72.390625 C 27.765625 -72.390625 31.976562 -70.070312 34.6875 -65.4375 C 34.914062 -65.195312 35.300781 -64.847656 35.84375 -64.390625 C 35.925781 -65.472656 36.082031 -67.132812 36.3125 -69.375 C 36.238281 -69.84375 36.160156 -70.8125 36.078125 -72.28125 C 36.003906 -73.363281 36.546875 -74.097656 37.703125 -74.484375 C 37.859375 -74.554688 38.285156 -74.671875 38.984375 -74.828125 C 40.523438 -75.140625 41.566406 -74.640625 42.109375 -73.328125 C 42.492188 -72.398438 42.648438 -71.082031 42.578125 -69.375 C 42.421875 -66.507812 41.914062 -60.207031 41.0625 -50.46875 C 41.21875 -49.226562 41.21875 -47.523438 41.0625 -45.359375 C 40.675781 -43.890625 39.519531 -43.15625 37.59375 -43.15625 C 36.582031 -43.15625 35.613281 -43.425781 34.6875 -43.96875 C 34.226562 -45.4375 34 -46.054688 34 -45.828125 C 34.144531 -47.910156 33.71875 -50.691406 32.71875 -54.171875 C 31.945312 -55.953125 30.726562 -58.503906 29.0625 -61.828125 C 27.394531 -65.160156 25.441406 -66.90625 23.203125 -67.0625 C 19.953125 -67.289062 17.941406 -66.242188 17.171875 -63.921875 C 16.941406 -63.148438 16.515625 -61.679688 15.890625 -59.515625 C 14.960938 -56.347656 14.382812 -53.601562 14.15625 -51.28125 C 14.070312 -50.425781 13.992188 -50.078125 13.921875 -50.234375 C 14.304688 -47.753906 14.613281 -46.09375 14.84375 -45.25 C 15.625 -42.851562 17.097656 -41.226562 19.265625 -40.375 C 20.578125 -39.832031 22.894531 -39.484375 26.21875 -39.328125 C 36.65625 -38.710938 43.113281 -35.078125 45.59375 -28.421875 C 45.976562 -27.804688 46.363281 -26.765625 46.75 -25.296875 Z M 46.75 -25.296875 "/></g></g></g></svg>